<svg width="128" height="128" viewBox="0 0 128 128" fill="none" xmlns="http://www.w3.org/2000/svg">
<path fill-rule="evenodd" clip-rule="evenodd" d="M128 64C128 99.3466 99.3466 128 64 128C28.6534 128 0 99.3466 0 64C0 28.6534 28.6534 0 64 0C99.3466 0 128 28.6534 128 64Z" fill="#27A17C"/>
<path fill-rule="evenodd" clip-rule="evenodd" d="M94.0371 32.2734H33.4348V46.9032H56.4211V68.4072H71.0508V46.9032H94.0371V32.2734Z" fill="white"/>
<path fill-rule="evenodd" clip-rule="evenodd" d="M63.8747 70.6964C44.8597 70.6964 29.4447 67.6872 29.4447 63.9745C29.4447 60.2625 44.8597 57.2526 63.8747 57.2526C82.8891 57.2526 98.3042 60.2625 98.3042 63.9745C98.3042 67.6872 82.8891 70.6964 63.8747 70.6964ZM102.534 65.0954C102.534 60.3082 85.2257 56.4272 63.8747 56.4272C42.5236 56.4272 25.2148 60.3082 25.2148 65.0954C25.2148 69.3104 38.6363 72.8228 56.4206 73.6016V104.471H71.0504V73.6138C88.9723 72.8592 102.534 69.3328 102.534 65.0954Z" fill="white"/>
</svg>
