<svg width="512" height="512" viewBox="0 0 512 512" fill="none" xmlns="http://www.w3.org/2000/svg" xmlns:xlink="http://www.w3.org/1999/xlink" class=""><rect id="r4" width="512" height="512" x="0" y="0" rx="128" fill="url(#r5)" stroke="#FFFFFF" stroke-width="0" stroke-opacity="100%" paint-order="stroke"></rect><clipPath id="clip"><use xlink:href="#r4"></use></clipPath><defs><linearGradient id="r5" gradientUnits="userSpaceOnUse" gradientTransform="rotate(180)" style="transform-origin: center center;"><stop stop-color="#68AEFF"></stop><stop offset="1" stop-color="#003EB7"></stop></linearGradient><radialGradient id="r6" cx="0" cy="0" r="1" gradientUnits="userSpaceOnUse" gradientTransform="translate(256) rotate(90) scale(512)"><stop stop-color="white"></stop><stop offset="1" stop-color="white" stop-opacity="0"></stop></radialGradient></defs><svg xmlns="http://www.w3.org/2000/svg" fill="none" viewBox="0 0 16 16" width="352" height="352" x="80" y="80" alignment-baseline="middle" style="color: rgb(255, 255, 255);"><path fill="currentColor" d="M5.75 10C10 10 10 5.75 10 5.75S10 10 14.25 10C10 10 10 14.25 10 14.25S10 10 5.75 10ZM4 1.75S4 4 1.75 4C4 4 4 6.25 4 6.25S4 4 6.25 4C4 4 4 1.75 4 1.75Z"></path><path stroke="currentColor" stroke-linecap="round" stroke-linejoin="round" stroke-width="1.5" d="M5.75 10C10 10 10 5.75 10 5.75S10 10 14.25 10C10 10 10 14.25 10 14.25S10 10 5.75 10ZM4 1.75S4 4 1.75 4C4 4 4 6.25 4 6.25S4 4 6.25 4C4 4 4 1.75 4 1.75Z"></path></svg></svg>