<svg version="1.1" xmlns="http://www.w3.org/2000/svg" viewBox="0 0 870.7009429931641 425.537109375" width="870.7009429931641" height="425.537109375">
  <!-- svg-source:excalidraw -->
  
  <defs>
    <style class="style-fonts">
      @font-face {
        font-family: "Virgil";
        src: url("https://excalidraw.com/Virgil.woff2");
      }
      @font-face {
        font-family: "Cascadia";
        src: url("https://excalidraw.com/Cascadia.woff2");
      }
      @font-face {
        font-family: "Assistant";
        src: url("https://excalidraw.com/Assistant-Regular.woff2");
      }
    </style>
    
  </defs>
  <rect x="0" y="0" width="870.7009429931641" height="425.537109375" fill="#ffffff"></rect><g stroke-linecap="round" transform="translate(10 10) rotate(0 119.751953125 73.404296875)"><path d="M32 0 C78.46 -0.41, 122.63 -4.45, 207.5 0 C227.02 -2.96, 241.82 9.95, 239.5 32 C241.33 60.83, 239.05 86.01, 239.5 114.81 C238.18 133.16, 231.02 145.87, 207.5 146.81 C164.87 145.57, 126.8 151.62, 32 146.81 C9.09 147.15, 1.52 136.42, 0 114.81 C1.79 84.25, -1.83 59.3, 0 32 C-0.14 7.37, 8.47 -0.69, 32 0" stroke="none" stroke-width="0" fill="#ffc9c9"></path><path d="M32 0 C101.46 -0.59, 171.5 -1.47, 207.5 0 M32 0 C96.13 -1.43, 160.68 0.53, 207.5 0 M207.5 0 C229.47 -1.31, 239.94 8.67, 239.5 32 M207.5 0 C230.47 -0.29, 240.94 9.13, 239.5 32 M239.5 32 C239.65 55.26, 237.93 81.75, 239.5 114.81 M239.5 32 C238.99 58.63, 238.32 85.64, 239.5 114.81 M239.5 114.81 C240.5 135.46, 229.93 148.26, 207.5 146.81 M239.5 114.81 C238.94 137.55, 227.65 145.71, 207.5 146.81 M207.5 146.81 C166.84 147.16, 126.7 146.88, 32 146.81 M207.5 146.81 C161.21 148.85, 114.75 147.71, 32 146.81 M32 146.81 C9.31 145.66, -1.84 135.22, 0 114.81 M32 146.81 C10.93 149.07, 1.54 136.02, 0 114.81 M0 114.81 C-0.3 95.3, -0.89 78.65, 0 32 M0 114.81 C0.81 87.24, -0.02 58.64, 0 32 M0 32 C0.07 8.77, 10.76 0.73, 32 0 M0 32 C-0.5 10.99, 9.99 1.62, 32 0" stroke="#1e1e1e" stroke-width="2" fill="none"></path></g><g transform="translate(70.2421875 68.578125) rotate(0 62.18994903564453 12.5)"><text x="0" y="0" font-family="Virgil, Segoe UI Emoji" font-size="20px" fill="#1e1e1e" text-anchor="start" style="white-space: pre;" direction="ltr" dominant-baseline="text-before-edge">Common User</text></g><g stroke-linecap="round" transform="translate(473.826171875 12.263671875) rotate(0 119.751953125 73.404296875)"><path d="M32 0 C74.98 -0.95, 119.67 0.57, 207.5 0 C231.39 1.4, 239.87 9.92, 239.5 32 C241.8 55.76, 239.36 79.67, 239.5 114.81 C243.03 135.41, 227.01 149.92, 207.5 146.81 C142.11 146.51, 76.68 147.55, 32 146.81 C13.86 150.11, 0.89 137.92, 0 114.81 C-2.53 92.78, -4.8 80.56, 0 32 C0.02 11.75, 8.7 0.5, 32 0" stroke="none" stroke-width="0" fill="#b2f2bb"></path><path d="M32 0 C94.85 -0.35, 158.28 -1.68, 207.5 0 M32 0 C78.35 -0.01, 125.55 -0.68, 207.5 0 M207.5 0 C228.11 0.13, 240.48 9.52, 239.5 32 M207.5 0 C230.89 -1.37, 239.44 11.6, 239.5 32 M239.5 32 C238.76 61.16, 239.28 93.11, 239.5 114.81 M239.5 32 C238.86 52.15, 238.25 70.74, 239.5 114.81 M239.5 114.81 C238.67 136.12, 227.43 148.02, 207.5 146.81 M239.5 114.81 C239.54 135.36, 230.99 145.36, 207.5 146.81 M207.5 146.81 C169.2 147.61, 133.21 149.38, 32 146.81 M207.5 146.81 C141.18 147.56, 75.77 146.81, 32 146.81 M32 146.81 C9.86 146.01, 1.47 135.76, 0 114.81 M32 146.81 C10.06 148.75, -1.86 138.15, 0 114.81 M0 114.81 C1.18 87.08, -0.67 53.73, 0 32 M0 114.81 C0.3 85.72, -1.18 57.51, 0 32 M0 32 C0.77 8.85, 10.22 1.92, 32 0 M0 32 C-2.17 9.1, 11.99 -1.28, 32 0" stroke="#1e1e1e" stroke-width="2" fill="none"></path></g><g transform="translate(534.068359375 70.841796875) rotate(0 44.14996337890625 12.5)"><text x="0" y="0" font-family="Virgil, Segoe UI Emoji" font-size="20px" fill="#1e1e1e" text-anchor="start" style="white-space: pre;" direction="ltr" dominant-baseline="text-before-edge">PenX App</text></g><g stroke-linecap="round" transform="translate(269.451171875 268.728515625) rotate(0 119.751953125 73.404296875)"><path d="M32 0 C79.59 -2.62, 134.45 1.57, 207.5 0 C227.35 -1.09, 240.76 7.54, 239.5 32 C240.25 51.38, 237.48 71.32, 239.5 114.81 C242.91 133.36, 226.2 149.83, 207.5 146.81 C140.55 150.47, 70.44 150.53, 32 146.81 C10.81 149.17, -0.56 134.27, 0 114.81 C-1.01 83.86, 1.52 48.68, 0 32 C0.63 10.61, 10.31 -3.31, 32 0" stroke="none" stroke-width="0" fill="#a5d8ff"></path><path d="M32 0 C73.59 2.02, 113.95 2.06, 207.5 0 M32 0 C95.05 0.05, 158.51 -0.86, 207.5 0 M207.5 0 C227.07 -0.11, 239 9.94, 239.5 32 M207.5 0 C227.75 -0.57, 239.47 11.26, 239.5 32 M239.5 32 C239.42 54.29, 238.97 77.3, 239.5 114.81 M239.5 32 C239.05 60.28, 239.72 90.32, 239.5 114.81 M239.5 114.81 C238.08 135.26, 228.52 146.51, 207.5 146.81 M239.5 114.81 C240.09 134.12, 228.62 146.47, 207.5 146.81 M207.5 146.81 C148.96 146.32, 90.36 145.1, 32 146.81 M207.5 146.81 C146.48 149.16, 85.91 147.99, 32 146.81 M32 146.81 C11.11 147.36, 0.11 136.23, 0 114.81 M32 146.81 C11.71 148.66, 2.25 137.82, 0 114.81 M0 114.81 C0.93 94.28, 0.92 77.06, 0 32 M0 114.81 C0.67 90.38, -0.4 66.76, 0 32 M0 32 C-1.97 8.69, 9.23 -0.35, 32 0 M0 32 C-0.94 12.59, 8.42 0.08, 32 0" stroke="#1e1e1e" stroke-width="2" fill="none"></path></g><g transform="translate(332.005859375 349.396484375) rotate(0 52.15996551513672 10)"><text x="0" y="0" font-family="Virgil, Segoe UI Emoji" font-size="16px" fill="#1e1e1e" text-anchor="start" style="white-space: pre;" direction="ltr" dominant-baseline="text-before-edge">Staked PENX</text></g><g stroke-linecap="round" transform="translate(548.798828125 266.134765625) rotate(0 119.751953125 73.404296875)"><path d="M32 0 C73.84 -1.73, 113.02 1.75, 207.5 0 C229.78 0.67, 238.64 12.47, 239.5 32 C239.28 63.88, 238.37 99.03, 239.5 114.81 C237.16 137.02, 230.65 147.29, 207.5 146.81 C160.92 147.66, 116.15 150.67, 32 146.81 C10.16 143.57, 0.24 137.07, 0 114.81 C0.75 89.69, 2.12 58.5, 0 32 C3.22 8.96, 11.49 -0.76, 32 0" stroke="none" stroke-width="0" fill="#ffec99"></path><path d="M32 0 C88.51 2.5, 144.69 2.89, 207.5 0 M32 0 C75.15 0.91, 119.46 1.19, 207.5 0 M207.5 0 C229.02 -1.31, 241.04 10.71, 239.5 32 M207.5 0 C227.77 0.61, 240.13 8.51, 239.5 32 M239.5 32 C237.83 54.01, 237.34 79.85, 239.5 114.81 M239.5 32 C240.71 50.38, 239.79 68.26, 239.5 114.81 M239.5 114.81 C238.02 134.64, 230.77 145.36, 207.5 146.81 M239.5 114.81 C241.12 134.87, 230.11 148.96, 207.5 146.81 M207.5 146.81 C173.09 147.49, 135.48 146.06, 32 146.81 M207.5 146.81 C168.47 147.58, 126.74 147.38, 32 146.81 M32 146.81 C12.38 148.56, 1.02 136.2, 0 114.81 M32 146.81 C11.05 148.34, -1.71 135.01, 0 114.81 M0 114.81 C1.52 90.42, 0.83 63.95, 0 32 M0 114.81 C0.17 91.7, 0.47 69.74, 0 32 M0 32 C-1.55 10.35, 11.93 -1.45, 32 0 M0 32 C-0.58 10.88, 9.6 2.04, 32 0" stroke="#1e1e1e" stroke-width="2" fill="none"></path></g><g transform="translate(609.630859375 324.712890625) rotate(0 49.34996795654297 12.5)"><text x="0" y="0" font-family="Virgil, Segoe UI Emoji" font-size="20px" fill="#1e1e1e" text-anchor="start" style="white-space: pre;" direction="ltr" dominant-baseline="text-before-edge">PenX DAO</text></g><g stroke-linecap="round"><g transform="translate(244.578125 63.8359375) rotate(0 113.556640625 0.6205718060500374)"><path d="M0.68 0.23 C38.53 0.2, 188 0.07, 225.92 0.33 M-0.42 -0.69 C37.87 -0.65, 189.93 1.32, 228.01 1.39" stroke="#1e1e1e" stroke-width="2" fill="none"></path></g><g transform="translate(244.578125 63.8359375) rotate(0 113.556640625 0.6205718060500374)"><path d="M204.45 9.75 C209.65 5.91, 212.59 8.04, 228.01 1.39 M204.45 9.75 C212.36 6.58, 220.3 3.74, 228.01 1.39" stroke="#1e1e1e" stroke-width="2" fill="none"></path></g><g transform="translate(244.578125 63.8359375) rotate(0 113.556640625 0.6205718060500374)"><path d="M204.58 -7.35 C209.84 -7.67, 212.74 -2.03, 228.01 1.39 M204.58 -7.35 C212.62 -4.64, 220.51 -1.59, 228.01 1.39" stroke="#1e1e1e" stroke-width="2" fill="none"></path></g></g><mask></mask><g transform="translate(292.28125 30.6796875) rotate(0 62.103965759277344 10)"><text x="0" y="0" font-family="Virgil, Segoe UI Emoji" font-size="16px" fill="#1e1e1e" text-anchor="start" style="white-space: pre;" direction="ltr" dominant-baseline="text-before-edge">Pay member Fee</text></g><g stroke-linecap="round"><g transform="translate(496.99949169283104 163.0937500000001) rotate(0 -65.51385693743225 51.22656249999994)"><path d="M-0.55 -1.03 C-22.48 16.12, -109.05 84.48, -130.68 101.75 M1.36 1.04 C-20.77 18.43, -109.43 85.76, -131.44 102.92" stroke="#1e1e1e" stroke-width="2" fill="none"></path></g><g transform="translate(496.99949169283104 163.0937500000001) rotate(0 -65.51385693743225 51.22656249999994)"><path d="M-118.02 81.83 C-124.97 90.27, -129.46 98.78, -131.44 102.92 M-118.02 81.83 C-122.93 89, -125.36 94.91, -131.44 102.92" stroke="#1e1e1e" stroke-width="2" fill="none"></path></g><g transform="translate(496.99949169283104 163.0937500000001) rotate(0 -65.51385693743225 51.22656249999994)"><path d="M-107.6 95.39 C-118.34 98.69, -126.73 102.11, -131.44 102.92 M-107.6 95.39 C-115.82 98.3, -121.5 99.99, -131.44 102.92" stroke="#1e1e1e" stroke-width="2" fill="none"></path></g></g><mask></mask><g stroke-linecap="round"><g transform="translate(579.9386733142578 162.20703125) rotate(0 13.107648692780458 53.0419921875)"><path d="M0.16 0.96 C4.71 18.66, 22.27 88.39, 26.44 105.86 M-1.21 0.42 C3.28 18.34, 20.82 89.53, 25.61 107.29" stroke="#1e1e1e" stroke-width="2" fill="none"></path></g><g transform="translate(579.9386733142578 162.20703125) rotate(0 13.107648692780458 53.0419921875)"><path d="M11.5 86.65 C16.25 91.7, 17.49 94.29, 25.61 107.29 M11.5 86.65 C16.06 92.39, 19.63 98.21, 25.61 107.29" stroke="#1e1e1e" stroke-width="2" fill="none"></path></g><g transform="translate(579.9386733142578 162.20703125) rotate(0 13.107648692780458 53.0419921875)"><path d="M28.06 82.41 C29.04 88.44, 26.51 91.99, 25.61 107.29 M28.06 82.41 C28.02 89.28, 27 96.27, 25.61 107.29" stroke="#1e1e1e" stroke-width="2" fill="none"></path></g></g><mask></mask><g transform="translate(358.9453125 321.1484375) rotate(0 29.47997283935547 10)"><text x="0" y="0" font-family="Virgil, Segoe UI Emoji" font-size="16px" fill="#1e1e1e" text-anchor="start" style="white-space: pre;" direction="ltr" dominant-baseline="text-before-edge">stPENX</text></g><g transform="translate(330.69140625 194.58203125) rotate(0 46.84796905517578 10)"><text x="0" y="0" font-family="Virgil, Segoe UI Emoji" font-size="16px" fill="#1e1e1e" text-anchor="start" style="white-space: pre;" direction="ltr" dominant-baseline="text-before-edge">90% of fee</text></g><g transform="translate(501.5856246948242 225.1796875) rotate(0 44.14397430419922 10)"><text x="0" y="0" font-family="Virgil, Segoe UI Emoji" font-size="16px" fill="#1e1e1e" text-anchor="start" style="white-space: pre;" direction="ltr" dominant-baseline="text-before-edge">10% of fee</text></g><g stroke-linecap="round"><g transform="translate(472.826171875 106.0894843068196) rotate(0 -112.4208984375 0.6505703465902002)"><path d="M0.74 0.87 C-36.88 1.01, -187.72 1.94, -225.32 1.87 M-0.34 0.28 C-38.18 -0.02, -188.97 -0.12, -226.52 0.05" stroke="#1e1e1e" stroke-width="2" fill="none"></path></g><g transform="translate(472.826171875 106.0894843068196) rotate(0 -112.4208984375 0.6505703465902002)"><path d="M-203.04 -8.54 C-209.28 -6.36, -217.52 -2.78, -226.52 0.05 M-203.04 -8.54 C-209.28 -5.52, -213.71 -5.17, -226.52 0.05" stroke="#1e1e1e" stroke-width="2" fill="none"></path></g><g transform="translate(472.826171875 106.0894843068196) rotate(0 -112.4208984375 0.6505703465902002)"><path d="M-203.02 8.56 C-209.4 5.09, -217.65 3.03, -226.52 0.05 M-203.02 8.56 C-209.18 7.68, -213.62 4.13, -226.52 0.05" stroke="#1e1e1e" stroke-width="2" fill="none"></path></g></g><mask></mask><g transform="translate(270.64453125 116.40234375) rotate(0 82.0479507446289 10)"><text x="0" y="0" font-family="Virgil, Segoe UI Emoji" font-size="16px" fill="#1e1e1e" text-anchor="start" style="white-space: pre;" direction="ltr" dominant-baseline="text-before-edge">excellent product UX</text></g><g stroke-linecap="round"><g transform="translate(675.2890625 266.12109375) rotate(0 -18.3515625 -53.205078125)"><path d="M1.02 0.06 C-5.06 -17.72, -29.88 -89.37, -36.35 -107.09 M0.1 -0.96 C-6.12 -18.55, -31.18 -88.6, -37.11 -105.91" stroke="#1e1e1e" stroke-width="2" fill="none"></path></g><g transform="translate(675.2890625 266.12109375) rotate(0 -18.3515625 -53.205078125)"><path d="M-21.25 -86.58 C-26.03 -91.87, -32.19 -100.31, -37.11 -105.91 M-21.25 -86.58 C-25.21 -92.07, -30.79 -98.9, -37.11 -105.91" stroke="#1e1e1e" stroke-width="2" fill="none"></path></g><g transform="translate(675.2890625 266.12109375) rotate(0 -18.3515625 -53.205078125)"><path d="M-37.39 -80.91 C-37.11 -88.1, -38.25 -98.31, -37.11 -105.91 M-37.39 -80.91 C-36.27 -88.21, -36.78 -96.81, -37.11 -105.91" stroke="#1e1e1e" stroke-width="2" fill="none"></path></g></g><mask></mask><g transform="translate(669.7890625 207.1875) rotate(0 95.45594024658203 10)"><text x="0" y="0" font-family="Virgil, Segoe UI Emoji" font-size="16px" fill="#1e1e1e" text-anchor="start" style="white-space: pre;" direction="ltr" dominant-baseline="text-before-edge">keep the network stable</text></g></svg>