<svg version="1.1" xmlns="http://www.w3.org/2000/svg" viewBox="0 0 824.7756532748124 879.7705876811094" width="824.7756532748124" height="879.7705876811094">
  <!-- svg-source:excalidraw -->
  
  <defs>
    <style class="style-fonts">
      @font-face {
        font-family: "Virgil";
        src: url("https://excalidraw.com/Virgil.woff2");
      }
      @font-face {
        font-family: "Cascadia";
        src: url("https://excalidraw.com/Cascadia.woff2");
      }
      @font-face {
        font-family: "Assistant";
        src: url("https://excalidraw.com/Assistant-Regular.woff2");
      }
    </style>
    
  </defs>
  <rect x="0" y="0" width="824.7756532748124" height="879.7705876811094" fill="#ffffff"></rect><g stroke-linecap="round" transform="translate(371.8146340191928 55.98508477128175) rotate(0 218.32925277849046 143.20194438311088)"><path d="M32 0 C128.86 -0.82, 228.05 -0.31, 404.66 0 M404.66 0 C426.77 -0.9, 438.65 10.51, 436.66 32 M436.66 32 C436.68 76.41, 436.37 124.31, 436.66 254.4 M436.66 254.4 C437.88 274.08, 425.89 288.23, 404.66 286.4 M404.66 286.4 C264 287.77, 123.61 287.62, 32 286.4 M32 286.4 C9.14 285.18, -0.35 274.43, 0 254.4 M0 254.4 C-1.35 205.34, -1.38 158.13, 0 32 M0 32 C-1.29 12.04, 12.24 1.57, 32 0" stroke="#1e1e1e" stroke-width="2.5" fill="none" stroke-dasharray="8 10"></path></g><g stroke-linecap="round" transform="translate(10 459.4522858055432) rotate(0 119.751953125 73.404296875)"><path d="M32 0 C78.46 -0.41, 122.63 -4.45, 207.5 0 C227.02 -2.96, 241.82 9.95, 239.5 32 C241.33 60.83, 239.05 86.01, 239.5 114.81 C238.18 133.16, 231.02 145.87, 207.5 146.81 C164.87 145.57, 126.8 151.62, 32 146.81 C9.09 147.15, 1.52 136.42, 0 114.81 C1.79 84.25, -1.83 59.3, 0 32 C-0.14 7.37, 8.47 -0.69, 32 0" stroke="none" stroke-width="0" fill="#ffc9c9"></path><path d="M32 0 C101.46 -0.59, 171.5 -1.47, 207.5 0 M32 0 C96.13 -1.43, 160.68 0.53, 207.5 0 M207.5 0 C229.47 -1.31, 239.94 8.67, 239.5 32 M207.5 0 C230.47 -0.29, 240.94 9.13, 239.5 32 M239.5 32 C239.65 55.26, 237.93 81.75, 239.5 114.81 M239.5 32 C238.99 58.63, 238.32 85.64, 239.5 114.81 M239.5 114.81 C240.5 135.46, 229.93 148.26, 207.5 146.81 M239.5 114.81 C238.94 137.55, 227.65 145.71, 207.5 146.81 M207.5 146.81 C166.84 147.16, 126.7 146.88, 32 146.81 M207.5 146.81 C161.21 148.85, 114.75 147.71, 32 146.81 M32 146.81 C9.31 145.66, -1.84 135.22, 0 114.81 M32 146.81 C10.93 149.07, 1.54 136.02, 0 114.81 M0 114.81 C-0.3 95.3, -0.89 78.65, 0 32 M0 114.81 C0.81 87.24, -0.02 58.64, 0 32 M0 32 C0.07 8.77, 10.76 0.73, 32 0 M0 32 C-0.5 10.99, 9.99 1.62, 32 0" stroke="#1e1e1e" stroke-width="2" fill="none"></path></g><g transform="translate(70.2421875 518.0304108055432) rotate(0 62.18994903564453 12.5)"><text x="0" y="0" font-family="Virgil, Segoe UI Emoji" font-size="20px" fill="#1e1e1e" text-anchor="start" style="white-space: pre;" direction="ltr" dominant-baseline="text-before-edge">Common User</text></g><g stroke-linecap="round" transform="translate(474.341796875 462.53895693495537) rotate(0 119.751953125 73.404296875)"><path d="M32 0 C74.98 -0.95, 119.67 0.57, 207.5 0 C231.39 1.4, 239.87 9.92, 239.5 32 C241.8 55.76, 239.36 79.67, 239.5 114.81 C243.03 135.41, 227.01 149.92, 207.5 146.81 C142.11 146.51, 76.68 147.55, 32 146.81 C13.86 150.11, 0.89 137.92, 0 114.81 C-2.53 92.78, -4.8 80.56, 0 32 C0.02 11.75, 8.7 0.5, 32 0" stroke="none" stroke-width="0" fill="#ffc9c9"></path><path d="M32 0 C94.85 -0.35, 158.28 -1.68, 207.5 0 M32 0 C78.35 -0.01, 125.55 -0.68, 207.5 0 M207.5 0 C228.11 0.13, 240.48 9.52, 239.5 32 M207.5 0 C230.89 -1.37, 239.44 11.6, 239.5 32 M239.5 32 C238.76 61.16, 239.28 93.11, 239.5 114.81 M239.5 32 C238.86 52.15, 238.25 70.74, 239.5 114.81 M239.5 114.81 C238.67 136.12, 227.43 148.02, 207.5 146.81 M239.5 114.81 C239.54 135.36, 230.99 145.36, 207.5 146.81 M207.5 146.81 C169.2 147.61, 133.21 149.38, 32 146.81 M207.5 146.81 C141.18 147.56, 75.77 146.81, 32 146.81 M32 146.81 C9.86 146.01, 1.47 135.76, 0 114.81 M32 146.81 C10.06 148.75, -1.86 138.15, 0 114.81 M0 114.81 C1.18 87.08, -0.67 53.73, 0 32 M0 114.81 C0.3 85.72, -1.18 57.51, 0 32 M0 32 C0.77 8.85, 10.22 1.92, 32 0 M0 32 C-2.17 9.1, 11.99 -1.28, 32 0" stroke="#1e1e1e" stroke-width="2" fill="none"></path></g><g transform="translate(534.583984375 520.7745680431931) rotate(0 44.14996337890625 12.5)"><text x="0" y="0" font-family="Virgil, Segoe UI Emoji" font-size="20px" fill="#1e1e1e" text-anchor="start" style="white-space: pre;" direction="ltr" dominant-baseline="text-before-edge">PenX App</text></g><g stroke-linecap="round" transform="translate(269.451171875 718.1808014305432) rotate(0 119.751953125 73.404296875)"><path d="M32 0 C79.59 -2.62, 134.45 1.57, 207.5 0 C227.35 -1.09, 240.76 7.54, 239.5 32 C240.25 51.38, 237.48 71.32, 239.5 114.81 C242.91 133.36, 226.2 149.83, 207.5 146.81 C140.55 150.47, 70.44 150.53, 32 146.81 C10.81 149.17, -0.56 134.27, 0 114.81 C-1.01 83.86, 1.52 48.68, 0 32 C0.63 10.61, 10.31 -3.31, 32 0" stroke="none" stroke-width="0" fill="#a5d8ff"></path><path d="M32 0 C73.59 2.02, 113.95 2.06, 207.5 0 M32 0 C95.05 0.05, 158.51 -0.86, 207.5 0 M207.5 0 C227.07 -0.11, 239 9.94, 239.5 32 M207.5 0 C227.75 -0.57, 239.47 11.26, 239.5 32 M239.5 32 C239.42 54.29, 238.97 77.3, 239.5 114.81 M239.5 32 C239.05 60.28, 239.72 90.32, 239.5 114.81 M239.5 114.81 C238.08 135.26, 228.52 146.51, 207.5 146.81 M239.5 114.81 C240.09 134.12, 228.62 146.47, 207.5 146.81 M207.5 146.81 C148.96 146.32, 90.36 145.1, 32 146.81 M207.5 146.81 C146.48 149.16, 85.91 147.99, 32 146.81 M32 146.81 C11.11 147.36, 0.11 136.23, 0 114.81 M32 146.81 C11.71 148.66, 2.25 137.82, 0 114.81 M0 114.81 C0.93 94.28, 0.92 77.06, 0 32 M0 114.81 C0.67 90.38, -0.4 66.76, 0 32 M0 32 C-1.97 8.69, 9.23 -0.35, 32 0 M0 32 C-0.94 12.59, 8.42 0.08, 32 0" stroke="#1e1e1e" stroke-width="2" fill="none"></path></g><g transform="translate(332.005859375 798.8487701805432) rotate(0 52.15996551513672 10)"><text x="0" y="0" font-family="Virgil, Segoe UI Emoji" font-size="16px" fill="#1e1e1e" text-anchor="start" style="white-space: pre;" direction="ltr" dominant-baseline="text-before-edge">Staked PENX</text></g><g stroke-linecap="round" transform="translate(542.5381755639049 722.9619939311094) rotate(0 119.751953125 73.404296875)"><path d="M32 0 C73.84 -1.73, 113.02 1.75, 207.5 0 C229.78 0.67, 238.64 12.47, 239.5 32 C239.28 63.88, 238.37 99.03, 239.5 114.81 C237.16 137.02, 230.65 147.29, 207.5 146.81 C160.92 147.66, 116.15 150.67, 32 146.81 C10.16 143.57, 0.24 137.07, 0 114.81 C0.75 89.69, 2.12 58.5, 0 32 C3.22 8.96, 11.49 -0.76, 32 0" stroke="none" stroke-width="0" fill="#ffec99"></path><path d="M32 0 C88.51 2.5, 144.69 2.89, 207.5 0 M32 0 C75.15 0.91, 119.46 1.19, 207.5 0 M207.5 0 C229.02 -1.31, 241.04 10.71, 239.5 32 M207.5 0 C227.77 0.61, 240.13 8.51, 239.5 32 M239.5 32 C237.83 54.01, 237.34 79.85, 239.5 114.81 M239.5 32 C240.71 50.38, 239.79 68.26, 239.5 114.81 M239.5 114.81 C238.02 134.64, 230.77 145.36, 207.5 146.81 M239.5 114.81 C241.12 134.87, 230.11 148.96, 207.5 146.81 M207.5 146.81 C173.09 147.49, 135.48 146.06, 32 146.81 M207.5 146.81 C168.47 147.58, 126.74 147.38, 32 146.81 M32 146.81 C12.38 148.56, 1.02 136.2, 0 114.81 M32 146.81 C11.05 148.34, -1.71 135.01, 0 114.81 M0 114.81 C1.52 90.42, 0.83 63.95, 0 32 M0 114.81 C0.17 91.7, 0.47 69.74, 0 32 M0 32 C-1.55 10.35, 11.93 -1.45, 32 0 M0 32 C-0.58 10.88, 9.6 2.04, 32 0" stroke="#1e1e1e" stroke-width="2" fill="none"></path></g><g transform="translate(603.3702068139049 781.5401189311094) rotate(0 49.34996795654297 12.5)"><text x="0" y="0" font-family="Virgil, Segoe UI Emoji" font-size="20px" fill="#1e1e1e" text-anchor="start" style="white-space: pre;" direction="ltr" dominant-baseline="text-before-edge">PenX DAO</text></g><g stroke-linecap="round"><g transform="translate(244.578125 513.2882233055432) rotate(0 113.814453125 0.8665189649997274)"><path d="M0.68 0.23 C38.61 0.28, 188.43 0.48, 226.44 0.82 M-0.42 -0.69 C37.96 -0.57, 190.36 1.73, 228.52 1.88" stroke="#1e1e1e" stroke-width="2" fill="none"></path></g><g transform="translate(244.578125 513.2882233055432) rotate(0 113.814453125 0.8665189649997274)"><path d="M204.95 10.19 C210.15 6.36, 213.09 8.5, 228.52 1.88 M204.95 10.19 C212.87 7.04, 220.81 4.21, 228.52 1.88" stroke="#1e1e1e" stroke-width="2" fill="none"></path></g><g transform="translate(244.578125 513.2882233055432) rotate(0 113.814453125 0.8665189649997274)"><path d="M205.12 -6.91 C210.37 -7.22, 213.27 -1.56, 228.52 1.88 M205.12 -6.91 C213.15 -4.18, 221.03 -1.12, 228.52 1.88" stroke="#1e1e1e" stroke-width="2" fill="none"></path></g></g><mask></mask><g transform="translate(292.28125 480.1319733055432) rotate(0 62.103965759277344 10)"><text x="0" y="0" font-family="Virgil, Segoe UI Emoji" font-size="16px" fill="#1e1e1e" text-anchor="start" style="white-space: pre;" direction="ltr" dominant-baseline="text-before-edge">Pay member Fee</text></g><g stroke-linecap="round"><g transform="translate(496.87676959523867 613.3690350599554) rotate(0 -65.33353251456231 50.815062872793874)"><path d="M-0.55 -1.03 C-22.42 15.98, -108.75 83.79, -130.31 100.93 M1.36 1.04 C-20.71 18.29, -109.13 85.08, -131.08 102.1" stroke="#1e1e1e" stroke-width="2" fill="none"></path></g><g transform="translate(496.87676959523867 613.3690350599554) rotate(0 -65.33353251456231 50.815062872793874)"><path d="M-117.61 81.04 C-124.58 89.47, -129.08 97.97, -131.08 102.1 M-117.61 81.04 C-122.54 88.2, -124.98 94.1, -131.08 102.1" stroke="#1e1e1e" stroke-width="2" fill="none"></path></g><g transform="translate(496.87676959523867 613.3690350599554) rotate(0 -65.33353251456231 50.815062872793874)"><path d="M-107.22 94.63 C-117.96 97.91, -126.37 101.31, -131.08 102.1 M-107.22 94.63 C-115.44 97.52, -121.13 99.19, -131.08 102.1" stroke="#1e1e1e" stroke-width="2" fill="none"></path></g></g><mask></mask><g stroke-linecap="round"><g transform="translate(580.3184868632508 612.4823163099554) rotate(0 12.902818187364915 52.814723517226554)"><path d="M0.16 0.96 C4.64 18.59, 21.93 88.01, 26.03 105.41 M-1.21 0.42 C3.21 18.26, 20.48 89.15, 25.2 106.83" stroke="#1e1e1e" stroke-width="2" fill="none"></path></g><g transform="translate(580.3184868632508 612.4823163099554) rotate(0 12.902818187364915 52.814723517226554)"><path d="M11.14 86.16 C15.88 91.22, 17.11 93.81, 25.2 106.83 M11.14 86.16 C15.69 91.91, 19.24 97.74, 25.2 106.83" stroke="#1e1e1e" stroke-width="2" fill="none"></path></g><g transform="translate(580.3184868632508 612.4823163099554) rotate(0 12.902818187364915 52.814723517226554)"><path d="M27.72 81.96 C28.68 87.99, 26.14 91.54, 25.2 106.83 M27.72 81.96 C27.66 88.83, 26.62 95.82, 25.2 106.83" stroke="#1e1e1e" stroke-width="2" fill="none"></path></g></g><mask></mask><g transform="translate(358.9453125 770.6007233055432) rotate(0 29.47997283935547 10)"><text x="0" y="0" font-family="Virgil, Segoe UI Emoji" font-size="16px" fill="#1e1e1e" text-anchor="start" style="white-space: pre;" direction="ltr" dominant-baseline="text-before-edge">stPENX</text></g><g transform="translate(331.3764340335247 644.6933968169644) rotate(0 47.095970153808594 10)"><text x="0" y="0" font-family="Virgil, Segoe UI Emoji" font-size="16px" fill="#1e1e1e" text-anchor="start" style="white-space: pre;" direction="ltr" dominant-baseline="text-before-edge">60% of fee</text></g><g transform="translate(501.5856246948242 674.6319733055432) rotate(0 44.14397430419922 10)"><text x="0" y="0" font-family="Virgil, Segoe UI Emoji" font-size="16px" fill="#1e1e1e" text-anchor="start" style="white-space: pre;" direction="ltr" dominant-baseline="text-before-edge">10% of fee</text></g><g stroke-linecap="round"><g transform="translate(473.341796875 556.0312445016341) rotate(0 -112.6787109375 0.4058331519545959)"><path d="M0.74 0.87 C-36.96 0.93, -188.15 1.53, -225.84 1.38 M-0.34 0.28 C-38.27 -0.1, -189.4 -0.53, -227.04 -0.44" stroke="#1e1e1e" stroke-width="2" fill="none"></path></g><g transform="translate(473.341796875 556.0312445016341) rotate(0 -112.6787109375 0.4058331519545959)"><path d="M-203.54 -8.98 C-209.78 -6.82, -218.03 -3.25, -227.04 -0.44 M-203.54 -8.98 C-209.78 -5.97, -214.22 -5.63, -227.04 -0.44" stroke="#1e1e1e" stroke-width="2" fill="none"></path></g><g transform="translate(473.341796875 556.0312445016341) rotate(0 -112.6787109375 0.4058331519545959)"><path d="M-203.55 8.13 C-209.93 4.64, -218.17 2.56, -227.04 -0.44 M-203.55 8.13 C-209.71 7.23, -214.14 3.67, -227.04 -0.44" stroke="#1e1e1e" stroke-width="2" fill="none"></path></g></g><mask></mask><g transform="translate(270.64453125 565.8546295555432) rotate(0 82.0479507446289 10)"><text x="0" y="0" font-family="Virgil, Segoe UI Emoji" font-size="16px" fill="#1e1e1e" text-anchor="start" style="white-space: pre;" direction="ltr" dominant-baseline="text-before-edge">excellent product UX</text></g><g stroke-linecap="round" transform="translate(420.66254931191054 105.75552916968198) rotate(0 78.8500858837341 48.33269906493531)"><path d="M24.17 0 C48.06 1.69, 71.52 2.56, 133.53 0 C147.85 -2.12, 158.93 7.98, 157.7 24.17 C155.3 41.79, 160.2 56.63, 157.7 72.5 C156.16 86.49, 148.05 99.19, 133.53 96.67 C94.32 99.18, 58.16 97.19, 24.17 96.67 C10.01 93.46, -3.22 86.2, 0 72.5 C-3.71 52.92, -4.08 34.26, 0 24.17 C2.8 9.86, 8.3 3.07, 24.17 0" stroke="none" stroke-width="0" fill="#b2f2bb"></path><path d="M24.17 0 C58.08 1.63, 96.67 1.03, 133.53 0 M24.17 0 C53.6 1.13, 82.11 0.71, 133.53 0 M133.53 0 C150.2 -1.14, 155.75 7.85, 157.7 24.17 M133.53 0 C151.32 1.45, 155.57 9.33, 157.7 24.17 M157.7 24.17 C157.17 40.75, 158.58 57.57, 157.7 72.5 M157.7 24.17 C157.9 34.32, 157.61 43.35, 157.7 72.5 M157.7 72.5 C157.34 87.77, 150.58 95.41, 133.53 96.67 M157.7 72.5 C157.04 89.93, 147.36 94.72, 133.53 96.67 M133.53 96.67 C99.74 95.86, 67.89 99.06, 24.17 96.67 M133.53 96.67 C91.13 97.19, 48.06 96.12, 24.17 96.67 M24.17 96.67 C8.43 96.07, 1.95 88.46, 0 72.5 M24.17 96.67 C5.95 97.93, 2.01 87.38, 0 72.5 M0 72.5 C0.25 56.65, -1.2 43.03, 0 24.17 M0 72.5 C0.86 58.14, 0.84 43.92, 0 24.17 M0 24.17 C-0.86 7.98, 9.25 0.33, 24.17 0 M0 24.17 C-1.96 6.31, 7.11 -0.3, 24.17 0" stroke="#1e1e1e" stroke-width="2" fill="none"></path></g><g transform="translate(444.063661185343 140.37832725268387) rotate(0 56.30995178222656 12.5)"><text x="0" y="0" font-family="Virgil, Segoe UI Emoji" font-size="20px" fill="#1e1e1e" text-anchor="start" style="white-space: pre;" direction="ltr" dominant-baseline="text-before-edge">Sync Server</text></g><g stroke-linecap="round" transform="translate(609.8262252464104 104.88305677305652) rotate(0 79.57541551238205 48.77730401712287)"><path d="M24.39 0 C50.55 -1.25, 81.5 1.67, 134.76 0 C147.56 3.36, 156.83 10.97, 159.15 24.39 C156.37 36.55, 160.94 49.12, 159.15 73.17 C157.72 88.47, 148.51 97.02, 134.76 97.55 C109.04 99.21, 81.95 98.47, 24.39 97.55 C6.38 95.57, 1.08 89.3, 0 73.17 C-3.48 56.91, 1.11 50.11, 0 24.39 C1 5.54, 10.72 3.43, 24.39 0" stroke="none" stroke-width="0" fill="#b2f2bb"></path><path d="M24.39 0 C49.44 0.44, 73.12 2.44, 134.76 0 M24.39 0 C60.37 0.28, 95.82 1.21, 134.76 0 M134.76 0 C149.4 -0.59, 161.02 6.47, 159.15 24.39 M134.76 0 C153.18 2.21, 160.01 7.29, 159.15 24.39 M159.15 24.39 C160.99 41.36, 158.91 55.93, 159.15 73.17 M159.15 24.39 C160.49 43.03, 159.08 60.86, 159.15 73.17 M159.15 73.17 C160.02 88.04, 151.99 99.5, 134.76 97.55 M159.15 73.17 C157.29 90.71, 153.06 96.76, 134.76 97.55 M134.76 97.55 C96.84 96.9, 56.11 96.24, 24.39 97.55 M134.76 97.55 C110.62 97.41, 87.58 97.7, 24.39 97.55 M24.39 97.55 C7.41 95.77, -0.63 88.49, 0 73.17 M24.39 97.55 C8.13 98.28, 2.22 87.58, 0 73.17 M0 73.17 C2.05 56.63, 0.58 42.01, 0 24.39 M0 73.17 C-0.13 55.1, -0.56 36.66, 0 24.39 M0 24.39 C1.99 6.3, 8.72 -0.12, 24.39 0 M0 24.39 C0.77 9.99, 9.05 1.61, 24.39 0" stroke="#1e1e1e" stroke-width="2" fill="none"></path></g><g transform="translate(624.442600294193 139.8243445697326) rotate(0 69.0256576538086 12.61498554829057)"><text x="0" y="0" font-family="Virgil, Segoe UI Emoji" font-size="20.183976877264907px" fill="#1e1e1e" text-anchor="start" style="white-space: pre;" direction="ltr" dominant-baseline="text-before-edge">Publish Server</text></g><g stroke-linecap="round" transform="translate(418.6268445670513 219.4712234087517) rotate(0 79.57541551238205 48.77730401712287)"><path d="M24.39 0 C56.73 -4.18, 92.81 1.66, 134.76 0 C151.23 1.78, 157.39 7.61, 159.15 24.39 C160.65 37.03, 158.87 53.4, 159.15 73.17 C157.64 91.21, 154.62 96.61, 134.76 97.55 C95.6 94.56, 60.83 97.36, 24.39 97.55 C6.65 98.24, 1.84 87.52, 0 73.17 C0.59 59.39, -2.7 51.33, 0 24.39 C2.82 6.55, 7.61 -0.09, 24.39 0" stroke="none" stroke-width="0" fill="#b2f2bb"></path><path d="M24.39 0 C67.05 -2.14, 105.78 -2.7, 134.76 0 M24.39 0 C56.7 -0.38, 88.65 -0.18, 134.76 0 M134.76 0 C152.07 1.63, 160.26 9.93, 159.15 24.39 M134.76 0 C152.48 2.23, 159.14 6.03, 159.15 24.39 M159.15 24.39 C157.68 36.79, 157.9 51.17, 159.15 73.17 M159.15 24.39 C159.9 38.73, 158.75 52.2, 159.15 73.17 M159.15 73.17 C160.98 91.11, 150.89 98.24, 134.76 97.55 M159.15 73.17 C157.44 91.17, 150.78 98.82, 134.76 97.55 M134.76 97.55 C109.43 98.74, 82.84 95.48, 24.39 97.55 M134.76 97.55 C109.61 95.82, 83.03 96.77, 24.39 97.55 M24.39 97.55 C8.06 98.72, 0.9 90.09, 0 73.17 M24.39 97.55 C7.16 97.32, -2.19 87.72, 0 73.17 M0 73.17 C1.21 61.27, 0.35 49.1, 0 24.39 M0 73.17 C-0.2 53.94, 0.06 33.95, 0 24.39 M0 24.39 C1.27 10.01, 8.64 -1.46, 24.39 0 M0 24.39 C1.36 9.62, 10.14 -0.69, 24.39 0" stroke="#1e1e1e" stroke-width="2" fill="none"></path></g><g transform="translate(433.24321961483395 253.56660568486365) rotate(0 56.84703063964844 12.61498554829057)"><text x="0" y="0" font-family="Virgil, Segoe UI Emoji" font-size="20.183976877264907px" fill="#1e1e1e" text-anchor="start" style="white-space: pre;" direction="ltr" dominant-baseline="text-before-edge">AI Provider</text></g><g stroke-linecap="round" transform="translate(605.2086923022836 219.4003263052438) rotate(0 79.57541551238205 48.77730401712287)"><path d="M24.39 0 C45.19 2.33, 71.35 0.38, 134.76 0 C152.2 -3.48, 161.63 5.42, 159.15 24.39 C162.03 38.98, 162.29 55.46, 159.15 73.17 C159.07 86.87, 153.42 96.78, 134.76 97.55 C95.86 93.67, 61.46 93.69, 24.39 97.55 C10.1 95.91, -3.28 90.1, 0 73.17 C1.86 57.12, 2 42.62, 0 24.39 C0.2 6.47, 11.43 0.86, 24.39 0" stroke="none" stroke-width="0" fill="#b2f2bb"></path><path d="M24.39 0 C50.79 -1.29, 77.03 -2.02, 134.76 0 M24.39 0 C51.64 0.59, 77.31 0.39, 134.76 0 M134.76 0 C150.48 -1.38, 158.21 10.09, 159.15 24.39 M134.76 0 C148.89 -1.92, 160.79 9.59, 159.15 24.39 M159.15 24.39 C158.62 40.84, 157.85 61.29, 159.15 73.17 M159.15 24.39 C158.28 38.94, 159.8 55.52, 159.15 73.17 M159.15 73.17 C160.51 91.17, 151.39 95.69, 134.76 97.55 M159.15 73.17 C157.53 89.92, 149.01 95.53, 134.76 97.55 M134.76 97.55 C101.17 98.02, 70.32 96.75, 24.39 97.55 M134.76 97.55 C103.87 95.9, 71.81 97.44, 24.39 97.55 M24.39 97.55 C6.82 95.91, 0.4 89.64, 0 73.17 M24.39 97.55 C9.54 95.86, -0.95 90.27, 0 73.17 M0 73.17 C1.72 53.32, 0.74 36, 0 24.39 M0 73.17 C-0.4 58.14, -0.66 42.53, 0 24.39 M0 24.39 C0.79 6.99, 6.35 1.48, 24.39 0 M0 24.39 C-0.48 8.19, 9.21 1.84, 24.39 0" stroke="#1e1e1e" stroke-width="2" fill="none"></path></g><g transform="translate(619.8250673500662 253.14800508517294) rotate(0 64.7071304321289 12.61498554829057)"><text x="0" y="0" font-family="Virgil, Segoe UI Emoji" font-size="20.183976877264907px" fill="#1e1e1e" text-anchor="start" style="white-space: pre;" direction="ltr" dominant-baseline="text-before-edge">Image server</text></g><g transform="translate(503.205038740929 68.10800069789428) rotate(0 79.6999282836914 12.5)"><text x="0" y="0" font-family="Virgil, Segoe UI Emoji" font-size="20px" fill="#1e1e1e" text-anchor="start" style="white-space: pre;" direction="ltr" dominant-baseline="text-before-edge">Economic System</text></g><g stroke-linecap="round"><g transform="translate(596.8410713025173 462.7618480742237) rotate(0 -7.569038047501863 -60.59122641316992)"><path d="M-0.42 0.12 C-3.06 -19.96, -12.42 -100.66, -14.91 -120.68 M1.57 -0.86 C-1.3 -21.29, -12.77 -102.39, -15.74 -122.54" stroke="#1e1e1e" stroke-width="2" fill="none"></path></g><g transform="translate(596.8410713025173 462.7618480742237) rotate(0 -7.569038047501863 -60.59122641316992)"><path d="M-3.93 -100.51 C-8.18 -108.54, -12.04 -117.68, -15.74 -122.54 M-3.93 -100.51 C-8.92 -109.48, -12.39 -117.69, -15.74 -122.54" stroke="#1e1e1e" stroke-width="2" fill="none"></path></g><g transform="translate(596.8410713025173 462.7618480742237) rotate(0 -7.569038047501863 -60.59122641316992)"><path d="M-20.86 -98.07 C-18.68 -106.97, -16.11 -117.04, -15.74 -122.54 M-20.86 -98.07 C-19.15 -108.07, -15.92 -117.24, -15.74 -122.54" stroke="#1e1e1e" stroke-width="2" fill="none"></path></g></g><mask></mask><g transform="translate(612.3836265058208 396.8127228153151) rotate(0 47.423973083496094 10)"><text x="0" y="0" font-family="Virgil, Segoe UI Emoji" font-size="16px" fill="#1e1e1e" text-anchor="start" style="white-space: pre;" direction="ltr" dominant-baseline="text-before-edge">30% of fee</text></g><g transform="translate(398.5359071810624 10) rotate(0 208.119873046875 12.5)"><text x="0" y="0" font-family="Virgil, Segoe UI Emoji" font-size="20px" fill="#1e1e1e" text-anchor="start" style="white-space: pre;" direction="ltr" dominant-baseline="text-before-edge">Get $PENX, if $PENC all minted, get fee</text></g></svg>