<svg width="128" height="128" viewBox="0 0 128 128" fill="none" xmlns="http://www.w3.org/2000/svg">
<path d="M64 128C99.3462 128 128 99.3462 128 64C128 28.6538 99.3462 0 64 0C28.6538 0 0 28.6538 0 64C0 99.3462 28.6538 128 64 128Z" fill="#F0B90B"/>
<path d="M40.132 64L30.34 73.86L20.48 64L30.34 54.14L40.132 64ZM64 40.132L80.864 56.996L90.724 47.136L73.86 30.34L64 20.48L54.14 30.34L37.344 47.136L47.204 56.996L64 40.132ZM97.66 54.14L87.868 64L97.728 73.86L107.52 64L97.66 54.14ZM64 87.868L47.136 71.004L37.344 80.864L54.208 97.728L64 107.52L73.86 97.66L90.724 80.796L80.864 71.004L64 87.868ZM64 73.86L73.86 64L64 54.14L54.14 64L64 73.86Z" fill="white"/>
</svg>
