<svg width="128" height="128" viewBox="0 0 128 128" fill="none" xmlns="http://www.w3.org/2000/svg">
<path d="M64 128C99.3462 128 128 99.3462 128 64C128 28.6538 99.3462 0 64 0C28.6538 0 0 28.6538 0 64C0 99.3462 28.6538 128 64 128Z" fill="#2775CA"/>
<path d="M52 108.5C52 110 50.8 110.85 49.4 110.4C30 104.2 16 86.1002 16 64.6502C16 43.2502 30 25.1002 49.4 18.9002C50.85 18.4502 52 19.3002 52 20.8002V24.5502C52 25.5502 51.25 26.7002 50.3 27.0502C34.95 32.7002 24 47.4502 24 64.6502C24 81.9002 34.95 96.6002 50.3 102.2C51.25 102.55 52 103.7 52 104.7V108.5Z" fill="white"/>
<path d="M68 94.6499C68 95.7499 67.1 96.6499 66 96.6499H62C60.9 96.6499 60 95.7499 60 94.6499V88.3499C51.25 87.1499 47 82.2999 45.85 75.5999C45.65 74.4499 46.55 73.4499 47.7 73.4499H52.25C53.2 73.4499 54 74.1499 54.2 75.0499C55.05 78.9999 57.35 82.0499 64.35 82.0499C69.5 82.0499 73.2 79.1499 73.2 74.8499C73.2 70.5499 71.05 68.8999 63.45 67.6499C52.25 66.1499 46.95 62.7499 46.95 53.9999C46.95 47.2499 52.1 41.9499 60 40.8499V34.6499C60 33.5499 60.9 32.6499 62 32.6499H66C67.1 32.6499 68 33.5499 68 34.6499V40.9999C74.45 42.1499 78.55 45.7999 79.9 51.8999C80.15 53.0499 79.25 54.0999 78.05 54.0999H73.85C72.95 54.0999 72.2 53.4999 71.95 52.6499C70.8 48.7999 68.05 47.0999 63.25 47.0999C57.95 47.0999 55.2 49.6499 55.2 53.2499C55.2 57.0499 56.75 58.9499 64.9 60.0999C75.9 61.5999 81.6 64.7499 81.6 74.0999C81.6 81.1999 76.3 86.9499 68.05 88.2499V94.6499H68Z" fill="white"/>
<path d="M78.6 110.4C77.15 110.85 76 110 76 108.5V104.75C76 103.65 76.65 102.6 77.7 102.25C93 96.6498 104 81.8998 104 64.6998C104 47.4498 93.05 32.7498 77.7 27.1498C76.75 26.7998 76 25.6498 76 24.6498V20.8998C76 19.3998 77.2 18.5498 78.6 18.9998C98 25.0998 112 43.2498 112 64.6498C112 86.0998 98 104.2 78.6 110.4Z" fill="white"/>
</svg>
