<?xml version="1.0" encoding="utf-8"?>
<!-- Generator: Adobe Illustrator 21.0.0, SVG Export Plug-In . SVG Version: 6.00 Build 0)  -->
<svg version="1.1" id="图层_1" xmlns="http://www.w3.org/2000/svg" xmlns:xlink="http://www.w3.org/1999/xlink" x="0px" y="0px"
	 viewBox="0 0 128 128" style="enable-background:new 0 0 128 128;" xml:space="preserve">
<style type="text/css">
	.st0{fill:#E84142;}
	.st1{fill:#FFFFFF;}
</style>
<circle class="st0" cx="64" cy="64" r="64"/>
<path class="st1" d="M43.5,91.8H31.1c-2.6,0-3.9,0-4.7-0.5c-0.8-0.6-1.4-1.5-1.4-2.5c0-0.9,0.6-2.1,1.9-4.3l30.7-54.1
	c1.3-2.3,2-3.4,2.8-3.9c0.9-0.5,2-0.5,2.9,0c0.8,0.4,1.5,1.6,2.8,3.9l6.3,11l0,0.1c1.4,2.5,2.1,3.7,2.4,5c0.3,1.4,0.3,2.9,0,4.4
	c-0.3,1.3-1,2.6-2.5,5.1L56.2,84.5l0,0.1c-1.4,2.5-2.1,3.7-3.1,4.7c-1.1,1-2.4,1.8-3.8,2.2C47.9,91.8,46.4,91.8,43.5,91.8z
	 M74.9,91.8h17.8c2.6,0,3.9,0,4.7-0.5c0.8-0.6,1.4-1.5,1.4-2.5c0-0.9-0.6-2-1.8-4.1c0-0.1-0.1-0.1-0.1-0.2L88,69.2l-0.1-0.2
	c-1.3-2.1-1.9-3.2-2.7-3.6c-0.9-0.5-1.9-0.5-2.8,0c-0.8,0.4-1.5,1.5-2.8,3.8l-8.9,15.3l0,0.1c-1.3,2.2-2,3.4-1.9,4.3
	c0.1,1,0.6,1.9,1.4,2.5C70.9,91.8,72.2,91.8,74.9,91.8z"/>
</svg>
