<?xml version="1.0" encoding="utf-8"?>
<!-- Generator: Adobe Illustrator 21.0.0, SVG Export Plug-In . SVG Version: 6.00 Build 0)  -->
<svg version="1.1" id="图层_1" xmlns="http://www.w3.org/2000/svg" xmlns:xlink="http://www.w3.org/1999/xlink" x="0px" y="0px"
	 viewBox="0 0 128 128" style="enable-background:new 0 0 128 128;" xml:space="preserve">
<style type="text/css">
	.st0{fill:#F7931A;}
	.st1{fill:#FFFFFF;}
</style>
<path class="st0" d="M64,128c35.3,0,64-28.7,64-64S99.3,0,64,0S0,28.7,0,64S28.7,128,64,128z"/>
<path class="st1" d="M92.6,54.6c1.4-8.7-5.2-13.4-14.2-16.5l3-11.7l-7.1-1.8l-2.9,11.4c-1.9-0.5-3.8-0.9-5.7-1.4l3-11.5l-7.1-1.8
	l-3,11.7c-1.6-0.4-3.1-0.7-4.6-1.1l0,0L44,29.3l-2,7.6c0,0,5.3,1.3,5.2,1.3c2.9,0.7,3.4,2.7,3.3,4.2l-3.4,13.4
	c0.2,0.1,0.5,0.1,0.7,0.2l-0.8-0.2l-4.8,18.7c-0.4,0.9-1.3,2.2-3.3,1.7c0.1,0.1-5.2-1.3-5.2-1.3L30.2,83l9.3,2.4
	c1.7,0.4,3.4,0.9,5.1,1.4l-3,11.9l7.1,1.8l3-11.7c1.9,0.5,3.8,1,5.7,1.5l-3,11.7l7.1,1.8l3-11.8c12.2,2.4,21.3,1.5,25.3-9.5
	c3.2-8.9-0.1-14-6.4-17.4C88,64,91.6,61,92.6,54.6z M76.1,77.4c-2.3,8.9-17.2,4-22,2.7l4-15.7C62.9,65.7,78.4,68.2,76.1,77.4z
	 M78.4,54.4c-2.1,8.1-14.5,3.9-18.5,2.8L63.6,43C67.6,44,80.6,46,78.4,54.4z"/>
</svg>
