<svg width="128" height="128" viewBox="0 0 128 128" fill="none" xmlns="http://www.w3.org/2000/svg">
<path d="M64 128C99.3462 128 128 99.3462 128 64C128 28.6538 99.3462 0 64 0C28.6538 0 0 28.6538 0 64C0 99.3462 28.6538 128 64 128Z" fill="#627EEA"/>
<path d="M63.9929 21.3335V52.8713L90.6489 64.7824L63.9929 21.3335Z" fill="white" fill-opacity="0.602"/>
<path d="M63.9928 21.3335L37.3333 64.7824L63.9928 52.8713V21.3335Z" fill="white"/>
<path d="M63.9929 85.2199V106.649L90.6667 69.7461L63.9929 85.2199Z" fill="white" fill-opacity="0.602"/>
<path d="M63.9928 106.649V85.2163L37.3333 69.7461L63.9928 106.649Z" fill="white"/>
<path d="M63.9929 80.2598L90.6489 64.7824L63.9929 52.8784V80.2598Z" fill="white" fill-opacity="0.2"/>
<path d="M37.3333 64.7824L63.9928 80.2598V52.8784L37.3333 64.7824Z" fill="white" fill-opacity="0.602"/>
</svg>
