<?xml version="1.0" encoding="utf-8"?>
<!-- Generator: Adobe Illustrator 21.0.0, SVG Export Plug-In . SVG Version: 6.00 Build 0)  -->
<svg version="1.1" id="图层_1" xmlns="http://www.w3.org/2000/svg" xmlns:xlink="http://www.w3.org/1999/xlink" x="0px" y="0px"
	 viewBox="0 0 128 128" style="enable-background:new 0 0 128 128;" xml:space="preserve">
<style type="text/css">
	.st0{fill:#F5AC37;}
	.st1{fill:#FEFEFD;}
</style>
<path class="st0" d="M64,0c35.3,0,64,28.7,64,64c0,35.3-28.7,64-64,64C28.7,128,0,99.3,0,64C0,28.7,28.7,0,64,0z"/>
<path class="st1" d="M66.4,68.5h24.3c0.5,0,0.8,0,0.8-0.7c0.2-2.5,0.2-5,0-7.4c0-0.5-0.2-0.7-0.8-0.7H42.3c-0.6,0-0.8,0.2-0.8,0.8
	v7.1c0,0.9,0,0.9,1,0.9H66.4z M88.8,50.8c-0.4-0.9-0.9-1.7-1.4-2.5c-0.8-1.4-1.8-2.6-3-3.7c-0.5-0.7-1.1-1.3-1.8-1.8
	c-3.5-2.9-7.6-5-12-6.1c-2.2-0.5-4.5-0.7-6.8-0.7H42.2c-0.6,0-0.7,0.2-0.7,0.8v14.2c0,0.6,0,0.8,0.8,0.8h46.2c0,0,0.5,0,0.5-0.3
	C88.9,51.2,88.9,51.1,88.8,50.8z M88.8,76.8c-0.7-0.1-1.4-0.1-2,0H42.4c-0.6,0-0.8,0-0.8,0.8v13.9c0,0.6,0,0.8,0.8,0.8h20.5
	c1,0.1,2,0,2.9-0.2c3-0.2,5.9-0.9,8.7-1.9c1-0.4,2-0.8,2.9-1.4h0.3c4.8-2.5,8.7-6.4,11.2-11.2C88.8,77.6,89.1,77,88.8,76.8
	L88.8,76.8z M33.5,99.5v-0.2v-9.3v-3.2v-9.4c0-0.5,0-0.6-0.6-0.6h-8.7c-0.5,0-0.7,0-0.7-0.6v-7.6h9.3c0.5,0,0.7,0,0.7-0.7v-7.5
	c0-0.5,0-0.6-0.6-0.6h-8.7c-0.5,0-0.7,0-0.7-0.6v-7c0-0.4,0-0.6,0.6-0.6h8.6c0.6,0,0.8,0,0.8-0.8V29.2c0-0.6,0-0.8,0.8-0.8h30
	c2.2,0.1,4.3,0.3,6.5,0.7c4.4,0.8,8.6,2.4,12.5,4.6c2.6,1.5,4.9,3.3,7,5.4c1.6,1.6,3,3.4,4.3,5.3c1.3,1.9,2.3,4,3.1,6.1
	c0.1,0.6,0.6,0.9,1.2,0.8h7.2c0.9,0,0.9,0,1,0.9v6.6c0,0.6-0.2,0.8-0.9,0.8h-5.5c-0.6,0-0.7,0-0.7,0.7c0.2,2.4,0.2,4.9,0,7.3
	c0,0.7,0,0.8,0.8,0.8h6.3c0.3,0.4,0,0.7,0,1.1c0,0.5,0,0.9,0,1.4v4.8c0,0.7-0.2,0.9-0.8,0.9h-7.6c-0.5-0.1-1,0.2-1.2,0.8
	c-1.8,4.7-4.7,8.9-8.4,12.2c-1.4,1.2-2.8,2.4-4.3,3.4c-1.6,0.9-3.2,1.9-4.8,2.6c-3,1.4-6.2,2.4-9.4,3c-3.1,0.6-6.2,0.8-9.4,0.8
	L33.5,99.5L33.5,99.5L33.5,99.5z"/>
</svg>
